<svg xmlns="http://www.w3.org/2000/svg" viewBox="0 0 512 512" width="512" height="512">
  <defs>
    <linearGradient id="hexGrad" x1="0%" y1="0%" x2="100%" y2="100%">
      <stop offset="0%" stop-color="#64ffda"/>
      <stop offset="100%" stop-color="#7c3aed"/>
    </linearGradient>
    <linearGradient id="innerGrad" x1="0%" y1="0%" x2="100%" y2="100%">
      <stop offset="0%" stop-color="rgba(100,255,218,0.15)"/>
      <stop offset="100%" stop-color="rgba(124,58,237,0.15)"/>
    </linearGradient>
  </defs>
  <!-- Outer hexagon -->
  <polygon points="256,32 463,138 463,374 256,480 49,374 49,138" fill="url(#hexGrad)" />
  <!-- Inner dark hexagon -->
  <polygon points="256,62 438,155 438,357 256,450 74,357 74,155" fill="#0a0a1a" />
  <!-- Inner glow hexagon -->
  <polygon points="256,82 420,167 420,345 256,430 92,345 92,167" fill="url(#innerGrad)" />
  <!-- Website/page icon -->
  <g transform="translate(256,240)" fill="none" stroke="#64ffda" stroke-width="12" stroke-linecap="round" stroke-linejoin="round">
    <!-- Browser window frame -->
    <rect x="-90" y="-100" width="180" height="200" rx="12" fill="none"/>
    <!-- Title bar -->
    <line x1="-90" y1="-68" x2="90" y2="-68"/>
    <!-- Dots in title bar -->
    <circle cx="-68" cy="-84" r="6" fill="#64ffda" stroke="none"/>
    <circle cx="-48" cy="-84" r="6" fill="#7c3aed" stroke="none"/>
    <circle cx="-28" cy="-84" r="6" fill="#94a3b8" stroke="none"/>
    <!-- Content lines -->
    <line x1="-60" y1="-36" x2="60" y2="-36" stroke-width="10" stroke="#64ffda" opacity="0.6"/>
    <line x1="-60" y1="-8" x2="40" y2="-8" stroke-width="10" stroke="#7c3aed" opacity="0.5"/>
    <line x1="-60" y1="20" x2="50" y2="20" stroke-width="10" stroke="#64ffda" opacity="0.4"/>
    <!-- Sparkle / AI indicator -->
    <g transform="translate(58, 60)">
      <path d="M0,-20 L4,-6 L18,-6 L7,3 L11,17 L0,8 L-11,17 L-7,3 L-18,-6 L-4,-6 Z" fill="#64ffda" stroke="none" opacity="0.9"/>
    </g>
  </g>
</svg>
